<?xml version="1.0" encoding="UTF-8" standalone="no"?>
<!DOCTYPE svg PUBLIC "-//W3C//DTD SVG 1.1//EN"
 "http://www.w3.org/Graphics/SVG/1.1/DTD/svg11.dtd">
<!-- Generated by graphviz version 2.47.3 (20210619.1520)
 -->
<!-- Title: dependencies Pages: 1 -->
<svg width="544pt" height="174pt"
 viewBox="0.00 0.00 544.00 173.80" xmlns="http://www.w3.org/2000/svg" xmlns:xlink="http://www.w3.org/1999/xlink">
<g id="graph0" class="graph" transform="scale(1 1) rotate(0) translate(4 169.8)">
<title>dependencies</title>
<polygon fill="white" stroke="transparent" points="-4,4 -4,-169.8 540,-169.8 540,4 -4,4"/>
<text text-anchor="middle" x="268" y="-8.2" font-family="sans-serif" font-size="14.00">dependencies</text>
<g id="clust1" class="cluster">
<title>cluster_AuthModule</title>
<polygon fill="none" stroke="black" stroke-dasharray="1,5" points="8,-32.8 8,-157.8 528,-157.8 528,-32.8 8,-32.8"/>
</g>
<g id="clust3" class="cluster">
<title>cluster_AuthModule_imports</title>
<polygon fill="none" stroke="black" points="290,-40.8 290,-92.8 520,-92.8 520,-40.8 290,-40.8"/>
</g>
<g id="clust6" class="cluster">
<title>cluster_AuthModule_providers</title>
<polygon fill="none" stroke="black" points="16,-40.8 16,-92.8 282,-92.8 282,-40.8 16,-40.8"/>
</g>
<!-- ConfigModule -->
<g id="node1" class="node">
<title>ConfigModule</title>
<polygon fill="#8dd3c7" stroke="black" points="512.44,-84.8 509.44,-88.8 488.44,-88.8 485.44,-84.8 413.56,-84.8 413.56,-48.8 512.44,-48.8 512.44,-84.8"/>
<text text-anchor="middle" x="463" y="-62.6" font-family="Times,serif" font-size="14.00">ConfigModule</text>
</g>
<!-- AuthModule -->
<g id="node3" class="node">
<title>AuthModule</title>
<polygon fill="#8dd3c7" stroke="black" points="324.55,-149.8 321.55,-153.8 300.55,-153.8 297.55,-149.8 237.45,-149.8 237.45,-113.8 324.55,-113.8 324.55,-149.8"/>
<text text-anchor="middle" x="281" y="-127.6" font-family="Times,serif" font-size="14.00">AuthModule</text>
</g>
<!-- ConfigModule&#45;&gt;AuthModule -->
<g id="edge1" class="edge">
<title>ConfigModule&#45;&gt;AuthModule</title>
<path fill="none" stroke="black" d="M463,-84.91C463,-104.14 463,-131.8 463,-131.8 463,-131.8 334.59,-131.8 334.59,-131.8"/>
<polygon fill="black" stroke="black" points="334.59,-128.3 324.59,-131.8 334.59,-135.3 334.59,-128.3"/>
</g>
<!-- ProfileModule -->
<g id="node2" class="node">
<title>ProfileModule</title>
<polygon fill="#8dd3c7" stroke="black" points="395.65,-84.8 392.65,-88.8 371.65,-88.8 368.65,-84.8 298.35,-84.8 298.35,-48.8 395.65,-48.8 395.65,-84.8"/>
<text text-anchor="middle" x="347" y="-62.6" font-family="Times,serif" font-size="14.00">ProfileModule</text>
</g>
<!-- ProfileModule&#45;&gt;AuthModule -->
<g id="edge2" class="edge">
<title>ProfileModule&#45;&gt;AuthModule</title>
<path fill="none" stroke="black" d="M311.47,-84.91C311.47,-84.91 311.47,-103.79 311.47,-103.79"/>
<polygon fill="black" stroke="black" points="307.97,-103.79 311.47,-113.79 314.97,-103.79 307.97,-103.79"/>
</g>
<!-- AuthService -->
<g id="node4" class="node">
<title>AuthService</title>
<ellipse fill="#fdb462" stroke="black" cx="215" cy="-66.8" rx="59.11" ry="18"/>
<text text-anchor="middle" x="215" y="-62.6" font-family="Times,serif" font-size="14.00">AuthService</text>
</g>
<!-- AuthService&#45;&gt;AuthModule -->
<g id="edge3" class="edge">
<title>AuthService&#45;&gt;AuthModule</title>
<path fill="none" stroke="black" d="M255.77,-79.95C255.77,-79.95 255.77,-103.49 255.77,-103.49"/>
<polygon fill="black" stroke="black" points="252.27,-103.49 255.77,-113.49 259.27,-103.49 252.27,-103.49"/>
</g>
<!-- JwtStrategy -->
<g id="node5" class="node">
<title>JwtStrategy</title>
<ellipse fill="#fdb462" stroke="black" cx="81" cy="-66.8" rx="56.76" ry="18"/>
<text text-anchor="middle" x="81" y="-62.6" font-family="Times,serif" font-size="14.00">JwtStrategy</text>
</g>
<!-- JwtStrategy&#45;&gt;AuthModule -->
<g id="edge4" class="edge">
<title>JwtStrategy&#45;&gt;AuthModule</title>
<path fill="none" stroke="black" d="M81,-84.91C81,-104.14 81,-131.8 81,-131.8 81,-131.8 227.11,-131.8 227.11,-131.8"/>
<polygon fill="black" stroke="black" points="227.11,-135.3 237.11,-131.8 227.11,-128.3 227.11,-135.3"/>
</g>
</g>
</svg>
