<?xml version="1.0" encoding="UTF-8" standalone="no"?>
<!DOCTYPE svg PUBLIC "-//W3C//DTD SVG 1.1//EN"
 "http://www.w3.org/Graphics/SVG/1.1/DTD/svg11.dtd">
<!-- Generated by graphviz version 2.47.3 (20210619.1520)
 -->
<!-- Title: dependencies Pages: 1 -->
<svg width="156pt" height="174pt"
 viewBox="0.00 0.00 156.00 173.80" xmlns="http://www.w3.org/2000/svg" xmlns:xlink="http://www.w3.org/1999/xlink">
<g id="graph0" class="graph" transform="scale(1 1) rotate(0) translate(4 169.8)">
<title>dependencies</title>
<polygon fill="white" stroke="transparent" points="-4,4 -4,-169.8 152,-169.8 152,4 -4,4"/>
<text text-anchor="middle" x="74" y="-8.2" font-family="sans-serif" font-size="14.00">dependencies</text>
<g id="clust1" class="cluster">
<title>cluster_ConfigModule</title>
<polygon fill="none" stroke="black" stroke-dasharray="1,5" points="8,-32.8 8,-157.8 140,-157.8 140,-32.8 8,-32.8"/>
</g>
<g id="clust4" class="cluster">
<title>cluster_ConfigModule_exports</title>
<polygon fill="none" stroke="black" points="16,-97.8 16,-149.8 132,-149.8 132,-97.8 16,-97.8"/>
</g>
<!-- ConfigService  -->
<g id="node1" class="node">
<title>ConfigService </title>
<polygon fill="#fb8072" stroke="black" points="124.37,-141.8 23.63,-141.8 23.63,-105.8 124.37,-105.8 124.37,-141.8"/>
<text text-anchor="middle" x="74" y="-119.6" font-family="Times,serif" font-size="14.00">ConfigService </text>
</g>
<!-- ConfigModule -->
<g id="node2" class="node">
<title>ConfigModule</title>
<polygon fill="#8dd3c7" stroke="black" points="123.44,-76.8 120.44,-80.8 99.44,-80.8 96.44,-76.8 24.56,-76.8 24.56,-40.8 123.44,-40.8 123.44,-76.8"/>
<text text-anchor="middle" x="74" y="-54.6" font-family="Times,serif" font-size="14.00">ConfigModule</text>
</g>
<!-- ConfigModule&#45;&gt;ConfigService  -->
<g id="edge1" class="edge">
<title>ConfigModule&#45;&gt;ConfigService </title>
<path fill="none" stroke="black" stroke-dasharray="5,2" d="M74,-76.91C74,-76.91 74,-95.79 74,-95.79"/>
<polygon fill="black" stroke="black" points="70.5,-95.79 74,-105.79 77.5,-95.79 70.5,-95.79"/>
</g>
</g>
</svg>
